<?xml version="1.0" encoding="UTF-8" standalone="no"?><!DOCTYPE svg PUBLIC "-//W3C//DTD SVG 1.1//EN" "http://www.w3.org/Graphics/SVG/1.1/DTD/svg11.dtd"><svg width="100%" height="100%" viewBox="0 0 220 220" version="1.1" xmlns="http://www.w3.org/2000/svg" xmlns:xlink="http://www.w3.org/1999/xlink" xml:space="preserve" style="fill-rule:evenodd;clip-rule:evenodd;stroke-linejoin:round;stroke-miterlimit:1.41421;"><clipPath id="_clip1"><rect id="logo" x="0" y="0" width="220" height="220"/></clipPath><g clip-path="url(#_clip1)"><path id="path66" d="M220,110c0,-60.719 -49.281,-110 -110,-110c-60.719,0 -110,49.281 -110,110c0,60.719 49.281,110 110,110c60.719,0 110,-49.281 110,-110Z" style="fill:#d70000;"/><path id="path72" d="M199.227,116.504c0,-45.974 -37.314,-83.288 -83.288,-83.288c-45.975,0 -83.289,37.314 -83.289,83.288c0,45.974 37.314,83.288 83.289,83.288c45.974,0 83.288,-37.314 83.288,-83.288l0,0Z" style="fill:#e60000;"/><path id="path78" d="M182.211,110c0,-24.821 -20.146,-44.967 -44.968,-44.967c-24.821,0 -44.967,20.146 -44.967,44.967c0,24.821 20.146,44.967 44.967,44.967c24.822,0 44.968,-20.146 44.968,-44.967l0,0Z" style="fill:#fb0000;"/><path id="path148" d="M197.785,124.637c-4.793,4.698 -8.489,7.047 -11.086,7.047c-1.165,0 -2.148,-0.487 -2.95,-1.461c-0.802,-0.993 -1.203,-2.215 -1.203,-3.666c0,-2.693 1.441,-6.302 4.325,-10.828c-1.413,0.725 -2.96,1.231 -4.641,1.518c-1.241,2.292 -3.189,4.755 -5.843,7.39l-0.659,-2.578c1.489,-1.547 2.836,-3.208 4.039,-4.984c-1.642,-0.726 -2.464,-1.805 -2.464,-3.237c0,-1.47 0.497,-3.036 1.49,-4.698c1.012,-1.68 2.397,-2.521 4.154,-2.521c1.489,0 2.234,0.764 2.234,2.292c0,1.203 -0.43,2.922 -1.289,5.156c3.17,-0.344 5.939,-2.769 8.307,-7.276l2.607,-0.114l-2.664,7.333c-1.108,3.094 -1.824,5.204 -2.149,6.331c-0.324,1.107 -0.486,2.091 -0.486,2.95c0,0.802 0.181,1.442 0.544,1.919c0.382,0.478 0.888,0.717 1.518,0.717c0.688,0 1.346,-0.23 1.977,-0.688c0.63,-0.477 2.043,-1.776 4.239,-3.896l0,3.294Zm-21.398,0c-0.974,0.86 -1.891,1.471 -2.808,1.834c-0.916,0.344 -1.642,0.515 -2.177,0.515c-1.375,0 -2.74,-0.534 -4.096,-1.604c-2.75,4.163 -5.901,6.245 -9.453,6.245c-2.215,0 -4.011,-0.831 -5.386,-2.492c-1.375,-1.662 -2.062,-3.867 -2.062,-6.617c0,-4.354 1.547,-8.088 4.641,-11.201c3.093,-3.132 6.789,-4.698 11.086,-4.698c1.623,0 2.807,0.182 3.552,0.545c0.763,0.343 1.231,0.754 1.403,1.231c0.172,0.478 0.258,1.079 0.258,1.805c0,3.571 -0.974,7.954 -2.922,13.148c0.974,0.898 1.996,1.347 3.065,1.347c1.28,0 2.235,-0.401 4.24,-2.636l0.659,2.578Zm-9.425,-16.013c-0.286,-0.114 -0.697,-0.171 -1.232,-0.171c-2.482,0 -4.43,1.298 -5.843,3.895c-1.394,2.598 -2.091,5.634 -2.091,9.11c0,1.929 0.305,3.428 0.916,4.497c0.611,1.07 1.461,1.604 2.55,1.604c1.356,0 2.826,-1.251 4.411,-3.752c-1.795,-2.254 -2.693,-4.679 -2.693,-7.276c0,-3.056 1.328,-5.691 3.982,-7.907l0,0Zm-45.604,16.013c-2.425,2.388 -4.602,4.154 -6.531,5.3c-1.929,1.127 -4.058,1.69 -6.388,1.69c-2.597,0 -4.698,-0.831 -6.302,-2.492c-1.585,-1.662 -2.378,-3.848 -2.378,-6.56c0,-4.049 1.404,-7.706 4.211,-10.971c2.807,-3.285 5.92,-4.927 9.339,-4.927c1.776,0 3.198,0.458 4.268,1.375c1.069,0.916 1.604,2.119 1.604,3.609c0,3.953 -4.201,7.161 -12.604,9.625c0.764,3.724 2.759,5.586 5.987,5.586c1.26,0 2.463,-0.334 3.609,-1.003c1.146,-0.687 2.874,-2.196 5.185,-4.526l0,3.294Zm-15.01,-5.299c4.889,-1.375 7.333,-3.915 7.333,-7.62c0,-1.833 -0.668,-2.75 -2.005,-2.75c-1.261,0 -2.464,0.965 -3.61,2.893c-1.145,1.91 -1.718,4.402 -1.718,7.477Zm-6.417,5.299c-2.425,2.388 -4.602,4.154 -6.531,5.3c-1.929,1.127 -4.058,1.69 -6.388,1.69c-2.598,0 -4.698,-0.831 -6.302,-2.492c-1.585,-1.662 -2.378,-3.848 -2.378,-6.56c0,-4.049 1.404,-7.706 4.211,-10.971c2.807,-3.285 5.92,-4.927 9.339,-4.927c1.776,0 3.198,0.458 4.268,1.375c1.069,0.916 1.604,2.119 1.604,3.609c0,3.953 -4.201,7.161 -12.604,9.625c0.764,3.724 2.759,5.586 5.987,5.586c1.26,0 2.463,-0.334 3.609,-1.003c1.146,-0.687 2.874,-2.196 5.185,-4.526l0,3.294Zm-15.01,-5.299c4.888,-1.375 7.333,-3.915 7.333,-7.62c0,-1.833 -0.668,-2.75 -2.005,-2.75c-1.261,0 -2.464,0.965 -3.61,2.893c-1.146,1.91 -1.718,4.402 -1.718,7.477Zm-6.417,5.299c-4.793,4.698 -8.489,7.047 -11.086,7.047c-1.165,0 -2.148,-0.487 -2.951,-1.461c-0.802,-0.993 -1.203,-2.215 -1.203,-3.666c0,-2.693 1.442,-6.302 4.326,-10.828c-1.413,0.725 -2.96,1.231 -4.641,1.518c-1.241,2.292 -3.189,4.755 -5.844,7.39l-0.658,0l0,-2.578c1.489,-1.547 2.836,-3.208 4.039,-4.984c-1.643,-0.726 -2.464,-1.805 -2.464,-3.237c0,-1.47 0.497,-3.036 1.49,-4.698c1.012,-1.68 2.396,-2.521 4.153,-2.521c1.49,0 2.235,0.764 2.235,2.292c0,1.203 -0.43,2.922 -1.289,5.156c3.17,-0.344 5.939,-2.769 8.307,-7.276l2.607,-0.114l-2.664,7.333c-1.108,3.094 -1.824,5.204 -2.149,6.331c-0.324,1.107 -0.487,2.091 -0.487,2.95c0,0.802 0.182,1.442 0.545,1.919c0.381,0.478 0.888,0.717 1.518,0.717c0.687,0 1.346,-0.23 1.976,-0.688c0.631,-0.477 2.044,-1.776 4.24,-3.896l0,3.294Zm-21.971,-35.033c-0.459,2.578 -1.175,4.449 -2.149,5.614c-0.974,1.146 -2.817,1.719 -5.529,1.719l-8.937,-0.229c-2.635,0 -4.774,0.515 -6.417,1.547c-1.623,1.012 -2.435,2.435 -2.435,4.268c0,1.719 1.041,3.065 3.123,4.039c0.706,0.325 1.06,0.621 1.06,0.888c0,0.535 -0.392,1.203 -1.175,2.005c-0.764,0.783 -1.652,1.366 -2.664,1.748c-2.578,-0.707 -3.867,-2.368 -3.867,-4.985c0,-1.833 0.726,-4.125 2.177,-6.875c1.451,-2.769 3.399,-5.022 5.844,-6.76c2.444,-1.757 5.156,-2.636 8.135,-2.636c0.248,0 1.604,0.105 4.068,0.315c2.483,0.191 3.982,0.287 4.497,0.287c1.547,0 2.483,-0.315 2.808,-0.945l1.461,0Zm-1.232,17.474l-0.516,5.013c-0.305,0.42 -0.936,0.83 -1.89,1.231c-0.955,0.382 -2.636,0.888 -5.042,1.519c-0.458,5.003 -2.129,9.042 -5.013,12.117c-2.884,3.055 -6.512,4.583 -10.886,4.583c-3.074,0 -5.471,-0.668 -7.19,-2.005c-1.699,-1.337 -2.549,-2.655 -2.549,-3.953c0,-0.611 0.659,-1.509 1.976,-2.693c1.337,-1.184 2.321,-1.776 2.951,-1.776c0.477,0 0.773,0.181 0.888,0.544c0.115,0.344 0.172,1.232 0.172,2.664c0.019,1.414 0.382,2.607 1.088,3.581c0.726,0.955 1.729,1.432 3.008,1.432c3.858,0 6.321,-3.991 7.391,-11.974c-1.757,0.382 -3.753,1.204 -5.987,2.464l1.232,-3.867c1.623,-1.394 3.351,-2.416 5.184,-3.065c0.287,-3.075 0.803,-5.519 1.547,-7.334c0.764,-1.814 2.006,-3.59 3.724,-5.328c2.273,-0.286 3.82,-0.449 4.641,-0.487c-0.649,1.261 -1.098,2.483 -1.346,3.667c-0.249,1.184 -0.411,3.351 -0.487,6.503c2.501,-0.822 4.869,-1.767 7.104,-2.836l0,0Zm82.984,-22.54l-5.303,0l0,-2.177l5.303,0l0,2.177Zm-0.82,43.647l1.768,-0.016c-0.214,1.111 -1.585,2.77 -3.557,2.772c-1.972,0.003 -3.809,-1.631 -3.772,-3.705c0.038,-2.075 1.629,-3.721 3.772,-3.719c2.143,0.001 3.428,1.516 3.578,2.715l-1.745,0.021c-0.224,-0.587 -0.677,-1.426 -1.833,-1.439c-1.155,-0.014 -2.256,0.923 -2.292,2.422c-0.035,1.498 1.045,2.451 2.292,2.48c0.93,-0.05 1.636,-0.745 1.789,-1.531l0,0Zm3.847,-0.956c0,-3.132 -2.544,-5.677 -5.676,-5.677c-3.132,0 -5.677,2.545 -5.677,5.677c0,3.132 2.545,5.676 5.677,5.676c3.132,0 5.676,-2.544 5.676,-5.676Zm-9.086,-20.157l0,14.108c1.239,-0.823 2.676,-0.962 3.45,-0.963c0.775,-0.001 2.176,0.228 3.366,0.878l0,-14.023l-6.816,0Zm-8.922,-21.871l-3.584,3.823l0,13.85l3.584,3.501l0,-21.174Zm24.745,0l3.584,3.823l0,13.85l-3.584,3.501l0,-21.174Zm-0.686,21.174l-23.459,0l0,-21.172l23.459,0l0,21.172Zm-122.34,29.276l0,1.988l172.645,0l0,-1.988l-172.645,0Z" style="fill:#fff;"/></g></svg>